<?xml version="1.0" encoding="UTF-8" standalone="no"?>
<!DOCTYPE svg PUBLIC "-//W3C//DTD SVG 1.1//EN" "http://www.w3.org/Graphics/SVG/1.1/DTD/svg11.dtd">
<svg width="100%" height="100%" viewBox="0 0 501 500" version="1.1" xmlns="http://www.w3.org/2000/svg" xmlns:xlink="http://www.w3.org/1999/xlink" xml:space="preserve" xmlns:serif="http://www.serif.com/" style="fill-rule:evenodd;clip-rule:evenodd;stroke-linejoin:round;stroke-miterlimit:2;">
    <g transform="matrix(1,0,0,1,-5.0005,-5)">
        <g id="path2718" transform="matrix(30.8375,0,0,-30.8375,887.109,308.503)">
            <path d="M-15.592,0.263C-16.504,0.263 -17.448,-0.794 -17.448,-2.371L-17.448,-5.772C-16.377,-5.339 -15.419,-4.683 -14.632,-3.863L-14.632,-1.135C-14.632,-0.274 -14.827,0.263 -15.592,0.263ZM-20.491,9.842C-24.972,9.842 -28.605,6.214 -28.605,1.74C-28.605,-1.32 -26.906,-3.983 -24.4,-5.362L-24.4,1.84L-22.43,1.84C-22.43,1.466 -22.462,0.848 -22.527,0.393L-22.511,0.377C-22.023,1.368 -21.046,2.003 -19.841,2.003C-18.409,2.003 -17.806,1.173 -17.611,0.393C-17.237,1.173 -16.341,2.003 -14.974,2.003C-13.595,2.003 -12.761,1.33 -12.585,-0.078C-12.45,0.506 -12.377,1.114 -12.377,1.74C-12.377,6.214 -16.01,9.842 -20.491,9.842ZM-19.499,-1.119C-19.499,-0.322 -19.662,0.263 -20.46,0.263C-21.42,0.263 -22.316,-0.859 -22.316,-2.371L-22.316,-6.155C-21.729,-6.29 -21.119,-6.363 -20.491,-6.363C-20.155,-6.363 -19.824,-6.341 -19.499,-6.3L-19.499,-6.24" style="fill:rgb(25,62,94);"/>
        </g>
    </g>
</svg>
