<?xml version="1.0" encoding="UTF-8" standalone="no"?>
<!-- Created with Inkscape (http://www.inkscape.org/) -->

<svg
   xmlns:dc="http://purl.org/dc/elements/1.1/"
   xmlns:cc="http://creativecommons.org/ns#"
   xmlns:rdf="http://www.w3.org/1999/02/22-rdf-syntax-ns#"
   xmlns:svg="http://www.w3.org/2000/svg"
   xmlns="http://www.w3.org/2000/svg"
   xmlns:sodipodi="http://sodipodi.sourceforge.net/DTD/sodipodi-0.dtd"
   xmlns:inkscape="http://www.inkscape.org/namespaces/inkscape"
   width="1588.39"
   height="510"
   id="svg6512"
   version="1.1"
   inkscape:version="0.48.1 "
   sodipodi:docname="Neues Dokument 5">
  <defs
     id="defs6514" />
  <sodipodi:namedview
     id="base"
     pagecolor="#ffffff"
     bordercolor="#666666"
     borderopacity="1.0"
     inkscape:pageopacity="0.0"
     inkscape:pageshadow="2"
     inkscape:zoom="0.56640028"
     inkscape:cx="794.19503"
     inkscape:cy="255"
     inkscape:document-units="px"
     inkscape:current-layer="layer1"
     showgrid="false"
     fit-margin-top="0"
     fit-margin-left="0"
     fit-margin-right="0"
     fit-margin-bottom="0"
     inkscape:window-width="1024"
     inkscape:window-height="678"
     inkscape:window-x="-4"
     inkscape:window-y="-4"
     inkscape:window-maximized="1" />
  <metadata
     id="metadata6517">
    <rdf:RDF>
      <cc:Work
         rdf:about="">
        <dc:format>image/svg+xml</dc:format>
        <dc:type
           rdf:resource="http://purl.org/dc/dcmitype/StillImage" />
        <dc:title></dc:title>
      </cc:Work>
    </rdf:RDF>
  </metadata>
  <g
     inkscape:label="Ebene 1"
     inkscape:groupmode="layer"
     id="layer1"
     transform="translate(-220.43644,104.4212)">
    <g
       id="g2712"
       transform="matrix(30.837548,0,0,-30.837548,1285.0768,491.88755)">
      <path
         d="m -14.449,6.716 c -2.1,0 -2.67,-0.52 -2.67,-1.219 0,-0.521 0.375,-0.943 0.977,-0.943 1.009,0 1.693,0.976 1.693,1.951 z m 0.163,-3.593 c 0,0.472 0.016,0.943 0.081,1.366 l -0.017,0.016 c -0.39,-0.91 -1.383,-1.544 -2.588,-1.544 -1.465,0 -2.311,0.992 -2.311,2.308 0,1.919 1.839,2.813 4.672,2.813 l 0,0.292 c 0,0.976 -0.375,1.415 -1.449,1.415 -0.733,0 -1.726,-0.244 -2.442,-0.553 l -0.342,1.593 c 0.814,0.325 1.97,0.553 3.06,0.553 2.508,0 3.256,-1.04 3.256,-2.845 l 0,-3.333 c 0,-0.65 0.016,-1.414 0.066,-2.081"
         style="fill:#193e5e;fill-opacity:1;fill-rule:evenodd;stroke:none"
         id="path2714"
         inkscape:connector-curvature="0"
         sodipodi:nodetypes="csssccccsscssccsssc" />
    </g>
    <g
       id="g2716"
       transform="matrix(30.837548,0,0,-30.837548,1107.545,204.08195)">
      <path
         inkscape:connector-curvature="0"
         d="m 0,0 c -1.498,0.293 -2.247,-0.666 -2.247,-2.91 l 0,-3.3 -2.083,0 0,8.08 1.97,0 c 0,-0.407 -0.05,-1.057 -0.147,-1.626 l 0.032,0 c 0.391,1.024 1.173,1.919 2.572,1.788 L 0,0 z m 6.528,-6.21 c 0,0.374 0.016,1.025 0.097,1.447 l -0.016,0 C 6.121,-5.706 5.193,-6.372 3.858,-6.372 c -1.824,0 -2.409,1.154 -2.409,2.568 l 0,5.674 2.067,0 0,-5.17 c 0,-0.829 0.228,-1.333 1.01,-1.333 1.058,0 1.872,1.187 1.872,2.601 l 0,3.902 2.083,0 0,-8.08 -1.953,0 z m 13.967,0 0,5.105 c 0,0.861 -0.195,1.398 -0.961,1.398 -0.911,0 -1.855,-1.057 -1.855,-2.634 l 0,-3.869 -2.051,0 0,5.121 c 0,0.797 -0.163,1.382 -0.96,1.382 -0.961,0 -1.857,-1.122 -1.857,-2.634 l 0,-3.869 -2.084,0 0,8.08 1.97,0 c 0,-0.374 -0.032,-0.992 -0.097,-1.447 l 0.016,-0.017 c 0.489,0.992 1.465,1.626 2.67,1.626 1.432,0 2.035,-0.829 2.23,-1.609 0.374,0.78 1.27,1.609 2.637,1.609 1.563,0 2.426,-0.861 2.426,-2.682 l 0,-5.56 -2.084,0 z m -36.087,6.473 c -0.912,0 -1.856,-1.057 -1.856,-2.634 l 0,-3.401 c 1.071,0.433 2.029,1.089 2.816,1.909 l 0,2.728 c 0,0.861 -0.195,1.398 -0.96,1.398 z m -4.899,9.579 c -4.481,0 -8.114,-3.628 -8.114,-8.102 0,-3.06 1.699,-5.723 4.205,-7.102 l 0,7.202 1.97,0 c 0,-0.374 -0.032,-0.992 -0.097,-1.447 l 0.016,-0.016 c 0.488,0.991 1.465,1.626 2.67,1.626 1.432,0 2.035,-0.83 2.23,-1.61 0.374,0.78 1.27,1.61 2.637,1.61 1.379,0 2.213,-0.673 2.389,-2.081 0.135,0.584 0.208,1.192 0.208,1.818 0,4.474 -3.633,8.102 -8.114,8.102 z m 0.992,-10.961 c 0,0.797 -0.163,1.382 -0.961,1.382 -0.96,0 -1.856,-1.122 -1.856,-2.634 l 0,-3.784 c 0.587,-0.135 1.197,-0.208 1.825,-0.208 0.336,0 0.667,0.022 0.992,0.063 l 0,0.06"
         style="fill:#193e5e;fill-opacity:1;fill-rule:evenodd;stroke:none"
         id="path2718" />
    </g>
  </g>
</svg>
