<?xml version="1.0" encoding="UTF-8" standalone="no"?>
<!DOCTYPE svg PUBLIC "-//W3C//DTD SVG 1.1//EN" "http://www.w3.org/Graphics/SVG/1.1/DTD/svg11.dtd">
<svg width="100%" height="100%" viewBox="0 0 1012 1012" version="1.1" xmlns="http://www.w3.org/2000/svg" xmlns:xlink="http://www.w3.org/1999/xlink" xml:space="preserve" xmlns:serif="http://www.serif.com/" style="fill-rule:evenodd;clip-rule:evenodd;stroke-linejoin:round;stroke-miterlimit:2;">
    <g transform="matrix(1,0,0,1,-154.97,-2125.86)">
        <path d="M554.18,2137.15C588.585,2129.75 624.289,2125.86 660.896,2125.86C807.491,2125.86 939.607,2188.34 1032.02,2288.08C1024.47,2287.21 1016.5,2286.78 1008.11,2286.78C965.668,2286.78 932.001,2299.89 907.109,2326.13C882.217,2352.36 869.771,2389.03 869.771,2436.13C869.771,2482.69 882.172,2519.13 906.975,2545.45C931.777,2571.78 965.041,2584.94 1006.77,2584.94C1043.48,2584.94 1072.76,2576.26 1094.6,2558.89C1116.45,2541.52 1131.23,2515.82 1138.93,2481.79L1064.79,2469.17C1061.03,2489.05 1054.58,2503.06 1045.45,2511.21C1036.31,2519.36 1024.58,2523.43 1010.26,2523.43C991.097,2523.43 975.83,2516.45 964.459,2502.48C953.087,2488.51 947.402,2464.6 947.402,2430.76C947.402,2400.31 952.998,2378.6 964.19,2365.62C975.383,2352.63 990.38,2346.14 1009.18,2346.14C1023.33,2346.14 1034.84,2349.9 1043.7,2357.42C1052.57,2364.94 1058.25,2376.14 1060.76,2391L1101.78,2383.6C1143.18,2456.93 1166.82,2541.62 1166.82,2631.78C1166.82,2911.01 940.124,3137.71 660.896,3137.71C381.668,3137.71 154.97,2911.01 154.97,2631.78C154.97,2552.03 173.462,2476.57 206.394,2409.43C212.022,2420.78 220.741,2430.49 232.551,2438.55C248.848,2449.65 287.439,2461.91 348.326,2475.35C361.398,2478.39 369.815,2481.7 373.576,2485.28C377.157,2489.05 378.948,2493.79 378.948,2499.52C378.948,2507.94 375.635,2514.65 369.009,2519.67C359.16,2526.83 344.475,2530.41 324.956,2530.41C307.227,2530.41 293.438,2526.61 283.589,2519C273.739,2511.39 267.203,2500.24 263.98,2485.55L188.23,2497.1C195.214,2524.14 210.032,2545.55 232.686,2561.3C255.339,2577.06 286.096,2584.94 324.956,2584.94C367.756,2584.94 400.079,2575.54 421.927,2556.74C443.774,2537.93 454.698,2515.46 454.698,2489.31C454.698,2465.32 446.819,2446.6 431.06,2433.17C415.122,2419.92 387.051,2408.73 346.848,2399.6C306.645,2390.46 283.141,2383.39 276.336,2378.38C271.322,2374.62 268.815,2370.05 268.815,2364.68C268.815,2358.41 271.68,2353.3 277.411,2349.37C286.006,2343.81 300.243,2341.04 320.121,2341.04C335.88,2341.04 348.012,2343.99 356.518,2349.9C365.025,2355.81 370.8,2364.32 373.844,2375.42L445.028,2362.26C437.865,2337.37 424.792,2318.56 405.81,2305.85C386.827,2293.13 357.817,2286.78 318.778,2286.78C308.3,2286.78 298.524,2287.33 289.453,2288.43C341.436,2232.22 406.014,2187.81 478.698,2159.71L478.698,2578.49L554.18,2578.49L554.18,2137.15ZM843.496,2377.57L769.089,2391C766.582,2376.14 760.897,2364.94 752.032,2357.42C743.168,2349.9 731.662,2346.14 717.515,2346.14C698.712,2346.14 683.714,2352.63 672.521,2365.62C661.329,2378.6 655.733,2400.31 655.733,2430.76C655.733,2464.6 661.418,2488.51 672.79,2502.48C684.161,2516.45 699.428,2523.43 718.589,2523.43C732.916,2523.43 744.645,2519.36 753.778,2511.21C762.911,2503.06 769.358,2489.05 773.119,2469.17L847.257,2481.79C839.557,2515.82 824.783,2541.52 802.935,2558.89C781.088,2576.26 751.808,2584.94 715.097,2584.94C673.372,2584.94 640.108,2571.78 615.306,2545.45C590.503,2519.13 578.102,2482.69 578.102,2436.13C578.102,2389.03 590.548,2352.36 615.44,2326.13C640.332,2299.89 673.999,2286.78 716.44,2286.78C751.182,2286.78 778.804,2294.25 799.309,2309.21C819.813,2324.16 834.543,2346.95 843.496,2377.57Z" style="fill:rgb(25,62,94);"/>
    </g>
</svg>
